inDegrees=yes
name=ik_lifting_orientations
DataType=double
version=3
OpenSimVersion=4.5-2024-01-10-34fd6af
endheader
time	pelvis_tilt	pelvis_list	pelvis_rotation	pelvis_tx	pelvis_ty	pelvis_tz	hip_flexion_r	hip_adduction_r	hip_rotation_r	knee_angle_r	knee_angle_r_beta	ankle_angle_r	subtalar_angle_r	mtp_angle_r	hip_flexion_l	hip_adduction_l	hip_rotation_l	knee_angle_l	knee_angle_l_beta	ankle_angle_l	subtalar_angle_l	mtp_angle_l	lumbar_extension	lumbar_bending	lumbar_rotation	arm_flex_r	arm_add_r	arm_rot_r	elbow_flex_r	pro_sup_r	wrist_flex_r	wrist_dev_r	arm_flex_l	arm_add_l	arm_rot_l	elbow_flex_l	pro_sup_l	wrist_flex_l	wrist_dev_l
1.63	4.375862117887947	2.086295737601289	-103.7470287553342	0	0.9399999998679526	0	45.13925432135767	-10.01239258680572	0	60.18332738203755	1.050397217622214	-5.00168800815563	0	0	45.13925432135767	-10.01239258680572	0	60.18332738203755	1.050397217622214	-5.00168800815563	0	0	4.113981578271014	-5.6733003258626	46.18998866644548	-6.943452349255351	-11.10082078176616	-25.12433512561236	132.556988732246	0.5245701835035549	0	0	0	-12.95390306805438	0	89.49367254237973	0.5245701835035549	0	0
1.64	4.298495649631557	1.597354405186533	-104.2530131632966	0	0.9399999998679526	0	45.13919528072117	-10.01237422309734	0	60.18326644978503	1.050396154153787	-5.001684745055985	0	0	45.13919528072117	-10.01237422309734	0	60.18326644978503	1.050396154153787	-5.001684745055985	0	0	3.427881310356371	-5.39743915811597	43.98733319610713	-5.647514591699546	-11.35325122764916	-22.13887461841859	134.6969917206929	0.524415440667477	0	0	0	-12.95434720025897	0	89.4938218518799	0.524415440667477	0	0
1.65	4.283788866584612	1.201433423884251	-104.6639881929825	0	0.9399999998679526	0	45.13915952739162	-10.01236310580305	0	60.18322956272249	1.050395510353095	-5.001682770062359	0	0	45.13915952739162	-10.01236310580305	0	60.18322956272249	1.050395510353095	-5.001682770062359	0	0	2.88212353184359	-5.219838343688639	44.6112203857306	-4.909073525895659	-11.28531416338223	-22.10056974150329	136.7716284486365	0.5243217377591811	0	0	0	-12.95461612176556	0	89.49391226468845	0.5243217377591811	0	0
1.66	4.194252938595377	0.7766800054902449	-104.760411738118	0	0.9399999998679526	0	45.13912303276518	-10.01235176314482	0	60.18319191407741	1.050394853260279	-5.001680755505847	0	0	45.13912303276518	-10.01235176314482	0	60.18319191407741	1.050394853260279	-5.001680755505847	0	0	2.283400769064704	-4.974638453959763	44.95644518706027	-4.268151305628619	-11.26501274800408	-22.24912979958512	138.5055717981626	0.524226089767082	0	0	0	-12.95489062609552	0	89.49400455428494	0.524226089767082	0	0
1.67	4.093276497477405	0.3609713854108616	-104.8666356209532	0	0.9399999998679526	0	45.1390702504581	-10.01233537758052	0	60.18313744514816	1.050393902598123	-5.001677846539246	0	0	45.1390702504581	-10.01233537758052	0	60.18313744514816	1.050393902598123	-5.001677846539246	0	0	1.772390267366964	-4.799415266862325	43.13460645494342	-3.148244299301875	-11.46350048941716	-19.91843465375618	141.2533329865569	0.5240877260708885	0	0	0	-12.9552877787851	0	89.49413805975038	0.5240877260708885	0	0
1.68	3.990036627818638	-0.1950032460484889	-105.254160589749	0	0.9399999998679526	0	45.13900895309765	-10.01231635611372	0	60.1830742142386	1.050392799010563	-5.001674470659046	0	0	45.13900895309765	-10.01231635611372	0	60.1830742142386	1.050392799010563	-5.001674470659046	0	0	1.140569059211987	-4.677871005470047	41.18314364494889	-1.778906668325847	-11.42652533533872	-17.32263247579694	143.5599288927858	0.5239270513430131	0	0	0	-12.95574893303139	0	89.49429309286189	0.5239270513430131	0	0
1.69	3.843234828938882	-0.6617270496245218	-105.2519961418247	0	0.9399999998679526	0	45.13778379689549	-10.01205050852585	0	60.18148858925944	1.050365124633974	-5.001630978754071	0	0	45.13778379689549	-10.01205050852585	0	60.18148858925944	1.050365124633974	-5.001630978754071	0	0	0.5056294914724745	-4.461614571216563	37.49929965744287	-0.4485303938307341	-11.5406640483637	-13.6926272223136	144.1378381080141	0.5204040721134339	0	0	0	-12.96662941264546	0	89.49769237368264	0.5204040721134339	0	0
1.7	3.789359024335249	-0.9653666324757931	-105.5673132809772	0	0.9399999998679526	0	45.13671930736633	-10.0118285309757	0	60.18009154705491	1.050340741647716	-5.001595077508898	0	0	45.13671930736633	-10.0118285309757	0	60.18009154705491	1.050340741647716	-5.001595077508898	0	0	0.06208399317590343	-4.285302779614168	34.78420147963809	0.6599102141871477	-11.4268721765047	-10.67576121821001	144.6442419996309	0.5173187735115881	0	0	0	-12.9762124413368	0	89.5006693416977	0.5173187735115881	0	0
1.71	3.769232734745573	-1.167390590265016	-105.8231378640136	0	0.9399999998679526	0	45.13668143819583	-10.01181708823169	0	60.18005241483935	1.050340058661711	-5.001593064707791	0	0	45.13668143819583	-10.01181708823169	0	60.18005241483935	1.050340058661711	-5.001593064707791	0	0	-0.1748148550356135	-4.290797610543666	33.82142528089807	1.461745124126082	-11.45363176031432	-9.101287422269008	147.390687666204	0.5172190510658948	0	0	0	-12.97649956786791	0	89.50076556268912	0.5172190510658948	0	0
1.72	3.729184168261336	-1.466423140509563	-106.1263666275023	0	0.9399999998679526	0	45.13662769632231	-10.01180084708895	0	60.17999691789642	1.050339090057332	-5.001590208311985	0	0	45.13662769632231	-10.01180084708895	0	60.17999691789642	1.050339090057332	-5.001590208311985	0	0	-0.4784038016106792	-4.280538231125241	31.66081663932814	2.554825987922152	-11.4597571780511	-6.542449118832107	148.9136677982175	0.5170775569676017	0	0	0	-12.97690689136239	0	89.50090208864695	0.5170775569676017	0	0
1.73	3.679716638884976	-1.838428240302347	-106.4272507721667	0	0.9399999998679526	0	45.13565704927599	-10.01160052152181	0	60.17872327458242	1.050316860788007	-5.00155792429207	0	0	45.13565704927599	-10.01160052152181	0	60.17872327458242	1.050316860788007	-5.00155792429207	0	0	-0.8565810636698978	-4.288518498070013	29.20329972906039	3.676261095181629	-11.17354744381694	-3.862625826995933	149.010773667358	0.514259459639311	0	0	0	-12.98566997794702	0	89.50362123732778	0.514259459639311	0	0
1.74	3.662739331752394	-2.086012011648438	-106.7379443494938	0	0.9399999998679526	0	45.13487341633412	-10.01143950652076	0	60.1776973131865	1.05029895438365	-5.001532019463681	0	0	45.13487341633412	-10.01143950652076	0	60.1776973131865	1.05029895438365	-5.001532019463681	0	0	-1.085524006878665	-4.358454096626797	27.32117469884628	4.538738688542907	-10.78600588018232	-2.045795828292372	148.6390494558076	0.5119829468104909	0	0	0	-12.99275156186164	0	89.50581781755015	0.5119829468104909	0	0
1.75	3.66161903681075	-2.401588730566617	-107.5596894020271	0	0.9399999998679526	0	45.1339980118982	-10.01126109701101	0	60.17655190316835	1.050278963207548	-5.001503401437107	0	0	45.1339980118982	-10.01126109701101	0	60.17655190316835	1.050278963207548	-5.001503401437107	0	0	-1.445459764080236	-4.398633606144444	25.20101145219464	5.332279942333585	-10.27783877321345	0.6403428579285554	148.437029447948	0.509436701475917	0	0	0	-13.00067850967184	0	89.50827465946971	0.509436701475917	0	0
1.76	3.688517786223853	-2.532709833971918	-108.0180156294973	0	0.9399999998679526	0	45.13395568112325	-10.01124868901466	0	60.17650810359263	1.05027819876074	-5.001501241185795	0	0	45.13395568112325	-10.01124868901466	0	60.17650810359263	1.05027819876074	-5.001501241185795	0	0	-1.518477532813103	-4.4734443880138	23.77104810289907	6.233873502999185	-10.08127277471552	2.726837748054998	149.1203547490725	0.5093246526514384	0	0	0	-13.00100226843651	0	89.50838277404033	0.5093246526514384	0	0
1.77	3.702675621797724	-2.669065679519258	-108.4802810530368	0	0.9399999998679526	0	45.13389220492563	-10.01123005948232	0	60.17644253730415	1.050277054413128	-5.001497997716926	0	0	45.13389220492563	-10.01123005948232	0	60.17644253730415	1.050277054413128	-5.001497997716926	0	0	-1.646850141837204	-4.568140073213828	22.31376514677964	7.143557164431851	-9.731412591209892	4.788002015044142	149.5977288880485	0.5091567285007991	0	0	0	-13.00148722521523	0	89.50854480204492	0.5091567285007991	0	0
1.78	3.761292035752292	-2.872143724621294	-110.0257035099227	0	0.9399999998679526	0	45.13385484748884	-10.01121917292355	0	60.17640375280386	1.050276377495899	-5.001496105283109	0	0	45.13385484748884	-10.01121917292355	0	60.17640375280386	1.050276377495899	-5.001496105283109	0	0	-1.6875473247214	-4.729052452337489	23.25194224578934	7.814722579215758	-9.487874999323845	5.311117463803387	149.1533819394334	0.509057698392303	0	0	0	-13.00177371041601	0	89.50864035501246	0.509057698392303	0	0
1.79	3.825528602283243	-2.999230894601295	-111.2777144398836	0	0.9399999998679526	0	45.13381837007711	-10.01120854336473	0	60.17636589835768	1.050275716811177	-5.001494257828466	0	0	45.13381837007711	-10.01120854336473	0	60.17636589835768	1.050275716811177	-5.001494257828466	0	0	-1.753162039651995	-4.865843531028641	23.81444595491981	8.606965974827386	-9.325497087728657	5.95502664942678	148.7666790509073	0.5089610115813394	0	0	0	-13.00205338540099	0	89.50873364696028	0.5089610115813394	0	0
1.8	3.882087762991706	-3.088753990703616	-111.8294940277211	0	0.9399999998679526	0	45.13377904655071	-10.01119703925577	0	60.17632523914452	1.050275007174036	-5.001492257182897	0	0	45.13377904655071	-10.01119703925577	0	60.17632523914452	1.050275007174036	-5.001492257182897	0	0	-1.786536030996088	-4.993196005239009	23.9225613926901	9.451745210328006	-9.275340352403521	6.299485453507923	148.3583970324625	0.5088569213147401	0	0	0	-13.00235412445191	0	89.50883408241383	0.5088569213147401	0	0
1.81	3.930368215156463	-3.159204588716499	-112.1205417893928	0	0.9399999998679526	0	45.13373724712977	-10.0111847909394	0	60.17628210025873	1.050274254258443	-5.001490126829988	0	0	45.13373724712977	-10.0111847909394	0	60.17628210025873	1.050274254258443	-5.001490126829988	0	0	-1.764962458296314	-5.119263478152218	23.3358958506191	10.32415453619755	-9.160088333326074	6.798838031232303	148.0711226533137	0.5087463493129146	0	0	0	-13.00267340586803	0	89.50894077201608	0.5087463493129146	0	0
1.82	3.985285011645399	-3.21621015201788	-112.6227981613576	0	0.9399999998679526	0	45.1336992836637	-10.0111737015012	0	60.17624284412847	1.050273569109719	-5.001488199571154	0	0	45.1336992836637	-10.0111737015012	0	60.17624284412847	1.050273569109719	-5.001488199571154	0	0	-1.762475382573934	-5.218355974127303	22.98152004778557	11.15134344880651	-8.912182362405959	7.494527108685908	147.4762508264626	0.5086458422736297	0	0	0	-13.00296381931678	0	89.50903775005652	0.5086458422736297	0	0
1.83	3.942287253126176	-3.488077584683378	-112.7415710507249	0	0.9399999998679526	0	45.13365498399945	-10.01116078539648	0	60.17619699121548	1.050272768825415	-5.001485956048477	0	0	45.13365498399945	-10.01116078539648	0	60.17619699121548	1.050272768825415	-5.001485956048477	0	0	-2.089454477138061	-5.271102692994077	22.83208419525986	11.89495297603559	-8.716523995365359	7.822345134938242	146.8590739892667	0.5085285081435323	0	0	0	-13.0033029757251	0	89.50915096435578	0.5085285081435323	0	0
1.84	3.909013881751627	-3.669285699791824	-113.106257157332	0	0.9399999998679526	0	45.13362721973035	-10.0111527438759	0	60.17616812059527	1.050272264938036	-5.001484561331211	0	0	45.13362721973035	-10.0111527438759	0	60.17616812059527	1.050272264938036	-5.001484561331211	0	0	-2.306477733347924	-5.264468371381681	23.58590192737466	12.41776168965506	-8.597313757174463	7.598719111938303	146.2541705011619	0.5084548338119739	0	0	0	-13.00351626112238	0	89.5092220518376	0.5084548338119739	0	0
1.85	3.864756856460499	-3.743525643623643	-112.8651606212644	0	0.9399999998679526	0	45.13359562873666	-10.01114360489195	0	60.17613525166553	1.05027169126699	-5.001482976824525	0	0	45.13359562873666	-10.01114360489195	0	60.17613525166553	1.05027169126699	-5.001482976824525	0	0	-2.494780342079038	-5.190621157411248	23.77391224178769	13.06217057821518	-8.727899649779221	7.196358140304265	145.5067757432977	0.5083709822446822	0	0	0	-13.0037590615376	0	89.5093029592126	0.5083709822446822	0	0
1.86	3.817210451813842	-3.82145795481407	-112.6112371199155	0	0.9399999998679526	0	45.13242313463203	-10.01091146423207	0	60.1745911710874	1.050244741976986	-5.001446103042349	0	0	45.13242313463203	-10.01091146423207	0	60.1745911710874	1.050244741976986	-5.001446103042349	0	0	-2.664253565615346	-5.146390342929462	21.17555870976245	14.18897836960124	-8.178061933406847	9.504743936172488	144.6798693232411	0.5049437476534723	0	0	0	-13.01446486179591	0	89.51260985722871	0.5049437476534723	0	0
